<svg height='100px' width='100px'  fill="#000000" xmlns="http://www.w3.org/2000/svg" xmlns:xlink="http://www.w3.org/1999/xlink" version="1.1" x="0px" y="0px" viewBox="0 0 100 100" enable-background="new 0 0 100 100" xml:space="preserve"><path d="M77.828,15.826c-1.317,0-2.668,0.138-4.027,0.412C72.254,7.862,64.912,1.676,56.289,1.676  c-7.72,0-14.545,5.003-16.923,12.281c-1.078-0.22-2.151-0.332-3.202-0.332c-8.96,0-16.25,7.29-16.25,16.25  c0,7.806,5.624,14.515,13.218,15.952c0.371,10.978,9.417,19.795,20.483,19.795c6.932,0,13.448-3.58,17.209-9.397  c2.258,0.811,4.609,1.222,7.004,1.222c11.475,0,20.811-9.335,20.811-20.811C98.639,25.161,89.303,15.826,77.828,15.826z   M77.828,55.446c-2.417,0-4.787-0.464-7.045-1.378l-0.799-0.324l-0.438,0.743c-3.318,5.635-9.423,9.135-15.932,9.135  c-10.198,0-18.495-8.297-18.494-18.5l0.006-1.022l-0.867-0.116c-7.039-0.942-12.347-7.007-12.347-14.108  c0-7.857,6.393-14.25,14.25-14.25c1.185,0,2.409,0.164,3.637,0.487l0.963,0.253l0.257-0.961C42.87,8.498,49.148,3.676,56.289,3.676  c7.983,0,14.729,5.974,15.692,13.895l0.138,1.127l1.101-0.278c1.56-0.394,3.11-0.594,4.608-0.594  c10.372,0,18.811,8.438,18.811,18.81C96.639,47.008,88.2,55.446,77.828,55.446z"></path><path d="M30.19,66.137c-5.667,0-10.276,4.61-10.276,10.276c0,5.667,4.61,10.277,10.276,10.277c5.666,0,10.275-4.61,10.275-10.277  C40.466,70.747,35.856,66.137,30.19,66.137z M30.19,84.69c-4.563,0-8.276-3.713-8.276-8.277c0-4.563,3.713-8.276,8.276-8.276  c4.563,0,8.275,3.713,8.275,8.276C38.466,80.978,34.753,84.69,30.19,84.69z"></path><path d="M8.179,84.69c-3.759,0-6.817,3.058-6.817,6.815c0,3.76,3.058,6.818,6.817,6.818c3.759,0,6.817-3.059,6.817-6.818  C14.996,87.748,11.938,84.69,8.179,84.69z M8.179,96.324c-2.656,0-4.817-2.161-4.817-4.818c0-2.655,2.161-4.815,4.817-4.815  s4.817,2.16,4.817,4.815C12.996,94.163,10.835,96.324,8.179,96.324z"></path></svg>