<svg xmlns:dc="http://purl.org/dc/elements/1.1/" xmlns:cc="http://creativecommons.org/ns#" xmlns:rdf="http://www.w3.org/1999/02/22-rdf-syntax-ns#" xmlns:svg="http://www.w3.org/2000/svg" xmlns="http://www.w3.org/2000/svg" xmlns:sodipodi="http://sodipodi.sourceforge.net/DTD/sodipodi-0.dtd" xmlns:inkscape="http://www.inkscape.org/namespaces/inkscape" viewBox="0 0 26.458333 33.0729175" version="1.1" x="0px" y="0px"><title>Empty 100 x 100</title><g transform="translate(0,-270.54165)"><path style="color:#000000;font-style:normal;font-variant:normal;font-weight:normal;font-stretch:normal;font-size:medium;line-height:normal;font-family:sans-serif;font-variant-ligatures:normal;font-variant-position:normal;font-variant-caps:normal;font-variant-numeric:normal;font-variant-alternates:normal;font-feature-settings:normal;text-indent:0;text-align:start;text-decoration:none;text-decoration-line:none;text-decoration-style:solid;text-decoration-color:#000000;letter-spacing:normal;word-spacing:normal;text-transform:none;writing-mode:lr-tb;direction:ltr;text-orientation:mixed;dominant-baseline:auto;baseline-shift:baseline;text-anchor:start;white-space:normal;shape-padding:0;clip-rule:nonzero;display:inline;overflow:visible;visibility:visible;opacity:1;isolation:auto;mix-blend-mode:normal;color-interpolation:sRGB;color-interpolation-filters:linearRGB;solid-color:#000000;solid-opacity:1;vector-effect:none;fill:#000000;fill-opacity:1;fill-rule:nonzero;stroke:none;stroke-width:2.00000024;stroke-linecap:round;stroke-linejoin:miter;stroke-miterlimit:0;stroke-dasharray:none;stroke-dashoffset:0;stroke-opacity:1;paint-order:markers stroke fill;color-rendering:auto;image-rendering:auto;shape-rendering:auto;text-rendering:auto;enable-background:accumulate" d="M 60.441406 5.0039062 C 54.988508 4.8995913 49.957839 7.1224199 47.306641 11.605469 C 38.217561 28.392581 29.106091 45.306219 20.019531 62.142578 C 19.819923 62.490673 19.779931 62.90475 19.78125 63.236328 C 19.78125 63.236328 21.233379 84.299482 21.832031 92.958984 C 21.910056 95.149258 23.274192 95.382318 24.816406 94.568359 C 32.67062 90.047893 50.921875 79.714844 50.921875 79.714844 L 50.921875 79.675781 C 51.22968 79.497388 51.50977 79.265234 51.691406 78.929688 C 60.615151 62.14061 69.908091 45.521482 78.763672 28.710938 C 82.590844 21.548052 78.5549 12.325731 70.291016 7.7246094 C 67.138342 5.9692078 63.713162 5.0683728 60.441406 5.0058594 L 60.441406 5.0039062 z M 60.382812 9.2382812 C 63.181606 9.1940608 66.235837 10.071383 68.308594 11.203125 C 74.291386 14.534325 76.527017 20.023437 75.345703 24.689453 C 67.630448 20.719173 59.711646 16.305346 52.738281 12.390625 C 54.673883 10.563034 57.364939 9.3867033 60.382812 9.2382812 z M 49.646484 15.666016 C 57.972629 20.021279 66.667929 24.762524 74.138672 28.888672 L 49.111328 75.273438 L 24.503906 62.275391 L 49.646484 15.666016 z M 58.142578 25.023438 L 38.607422 61.226562 L 42.121094 63.130859 L 61.669922 26.912109 L 58.142578 25.023438 z M 24.035156 66.560547 C 31.281115 70.385693 38.523883 74.21742 45.767578 78.046875 L 38.044922 82.433594 L 24.632812 75.34375 L 24.035156 66.560547 z " transform="matrix(0.26458333,0,0,0.26458333,0,270.54165)"/></g><text x="0" y="41.458334" fill="#000000" font-size="5px" font-weight="bold" font-family="'Helvetica Neue', Helvetica, Arial-Unicode, Arial, Sans-serif">Created by Sérgio Filipe Cardoso Pires</text><text x="0" y="46.458334" fill="#000000" font-size="5px" font-weight="bold" font-family="'Helvetica Neue', Helvetica, Arial-Unicode, Arial, Sans-serif">from the Noun Project</text></svg>